<?xml version="1.0" encoding="UTF-8" standalone="no"?>
<svg
   id="logo-29"
   width="44"
   height="44"
   viewBox="0 0 44 44"
   fill="none"
   version="1.1"
   sodipodi:docname="logoipsum-239 - Copy.svg"
   inkscape:version="1.3 (0e150ed6c4, 2023-07-21)"
   xmlns:inkscape="http://www.inkscape.org/namespaces/inkscape"
   xmlns:sodipodi="http://sodipodi.sourceforge.net/DTD/sodipodi-0.dtd"
   xmlns="http://www.w3.org/2000/svg"
   xmlns:svg="http://www.w3.org/2000/svg">
  <defs
     id="defs14" />
  <sodipodi:namedview
     id="namedview14"
     pagecolor="#ffffff"
     bordercolor="#000000"
     borderopacity="0.25"
     inkscape:showpageshadow="2"
     inkscape:pageopacity="0.0"
     inkscape:pagecheckerboard="0"
     inkscape:deskcolor="#d1d1d1"
     inkscape:zoom="8.6948052"
     inkscape:cx="35.883495"
     inkscape:cy="20.414488"
     inkscape:window-width="1920"
     inkscape:window-height="1017"
     inkscape:window-x="1912"
     inkscape:window-y="-8"
     inkscape:window-maximized="1"
     inkscape:current-layer="logo-29" />
  <path
     fill-rule="evenodd"
     clip-rule="evenodd"
     d="m 3,22.4353 0.00193,-0.2004 0.00398,-0.2005 0.00604,-0.2005 0.00809,-0.2005 0.01016,-0.2005 0.01221,-0.2005 0.01428,-0.2004 0.01633,-0.2004 0.0184,-0.2003 0.02046,-0.2003 0.02252,-0.2 0.02457,-0.2 0.02664,-0.1998 0.0287,-0.1996 0.03075,-0.1994 0.03281,-0.1991 0.03487,-0.199 0.03691,-0.1986 0.03897,-0.1984 0.04102,-0.1981 0.04307,-0.1978 0.0451,-0.1974 0.04716,-0.197 L 3.61415,17.6501 3.66538,17.4539 3.71863,17.258 3.77392,17.0626 3.83123,16.8677 3.89056,16.6733 3.9519,16.4794 4.01526,16.286 4.08063,16.0931 4.148,15.9008 4.21736,15.7091 4.28872,15.518 4.36206,15.3275 4.43739,15.1377 4.51469,14.9485 4.59396,14.7601 4.67519,14.5723 4.75838,14.3852 4.84352,14.1989 4.9306,14.0134 5.01962,13.8286 5.11057,13.6446 5.20344,13.4615 5.29822,13.2792 5.39491,13.0977 5.49349,12.9172 5.59396,12.7375 5.69632,12.5587 5.80054,12.3809 5.90663,12.204 6.01457,12.0281 6.12436,11.8532 6.23598,11.6793 6.34943,11.5065 6.4647,11.3346 6.58177,11.1639 6.70064,10.9942 6.82129,10.8256 6.94371,10.6582 7.0679,10.4918 7.19384,10.3267 7.32153,10.1627 7.45094,9.99984 7.58207,9.83824 7.71491,9.67786 7.84944,9.51872 7.98566,9.36083 8.12355,9.20422 8.26309,9.04891 8.40428,8.8949 8.54711,8.74222 8.69155,8.59088 8.8376,8.4409 8.98524,8.29229 9.13446,8.14507 9.28525,7.99926 9.43759,7.85487 9.59147,7.71193 9.74687,7.57043 9.90378,7.43041 10.06219,7.29187 10.22208,7.15482 10.38343,7.0193 10.54623,6.88531 10.71047,6.75286 10.87613,6.62197 11.0432,6.49265 11.2116,6.36493 11.3815,6.2388 11.5527,6.1143 11.7252,5.99143 11.899,5.8702 12.0742,5.75063 12.2506,5.63272 12.4283,5.51651 12.6073,5.40199 12.7876,5.28919 12.969,5.17811 13.1517,5.06876 13.3355,4.96117 13.5205,4.85534 13.7067,4.75128 13.894,4.64901 14.0824,4.54853 14.2719,4.44987 14.4625,4.35302 14.6542,4.25801 14.8469,4.16484 15.0407,4.07352 15.2354,3.98407 15.4312,3.8965 15.6279,3.81081 15.8256,3.72702 16.0242,3.64514 16.2237,3.56517 16.4241,3.48712 16.6254,3.41102 16.8275,3.33685 17.0305,3.26465 17.2343,3.1944 17.4389,3.12612 17.6442,3.05983 17.8503,2.99552 18.0572,2.93321 18.2648,2.87291 18.473,2.81462 18.682,2.75834 18.8916,2.70409 19.1018,2.65188 19.3126,2.60172 19.5241,2.55359 19.7361,2.50753 19.9486,2.46352 20.1617,2.42158 20.3753,2.38172 20.5894,2.34393 20.804,2.30823 21.019,2.27462 21.2344,2.2431 21.4502,2.21369 21.6664,2.18638 21.883,2.16118 22.0999,2.13808 22.3171,2.11712 22.5346,2.09827 22.7524,2.08154 22.9704,2.06695 24.1428,2 l 0.0669,5.64867 0.0383,-4.4e-4 0.1619,-2.3e-4 0.1619,0.00136 0.1619,0.00295 0.1621,0.00455 0.162,0.00614 0.1621,0.00772 0.1621,0.00933 0.1621,0.01093 0.162,0.01251 0.1621,0.01412 0.1619,0.01572 0.1619,0.01732 0.1617,0.01891 0.1617,0.02051 0.1615,0.02211 0.1614,0.0237 0.1612,0.02531 0.1611,0.0269 0.1608,0.02849 0.1607,0.03009 0.1604,0.03168 0.1601,0.03328 0.16,0.03486 0.1596,0.03645 0.1593,0.03803 0.1591,0.03962 0.1587,0.04121 0.1583,0.04278 0.158,0.04436 0.1577,0.04593 0.1572,0.0475 0.1568,0.04907 0.1564,0.05064 0.156,0.0522 0.1555,0.05375 0.155,0.05531 0.1546,0.05685 0.154,0.05841 0.1535,0.05994 0.153,0.06149 0.1524,0.06302 0.1518,0.06454 0.1513,0.06607 0.1507,0.06759 0.15,0.0691 0.1494,0.0706 0.1488,0.07211 0.1481,0.07361 0.1474,0.0751 0.1467,0.07658 0.146,0.07806 0.1453,0.07954 0.1445,0.081 0.1438,0.08246 0.143,0.08391 0.1422,0.08538 0.1414,0.0868 0.1406,0.0882 0.1397,0.0897 0.1389,0.091 0.138,0.0925 0.1372,0.0939 0.1362,0.0952 0.1354,0.0967 0.1344,0.098 0.1334,0.0994 0.1326,0.1008 0.1315,0.1021 0.1306,0.1035 0.1295,0.1047 0.1286,0.1061 0.1275,0.1075 0.1265,0.1087 0.1255,0.11 0.1244,0.1113 0.1232,0.1126 0.1222,0.1139 0.1211,0.1151 0.12,0.1163 0.1188,0.1176 0.1177,0.1188 0.1165,0.1201 0.1154,0.1212 0.1141,0.1224 0.113,0.1236 0.1117,0.1248 0.1105,0.1259 0.1093,0.1271 0.108,0.1282 0.1068,0.1293 0.1055,0.1305 0.1042,0.1315 0.1029,0.1326 0.1016,0.1337 0.1003,0.1348 0.0989,0.1358 0.0976,0.1369 0.0962,0.1379 0.0949,0.1388 0.0935,0.1399 0.0921,0.1409 0.0907,0.1419 0.0892,0.1428 0.0879,0.1437 0.0864,0.1447 0.085,0.1456 0.0835,0.1465 0.0821,0.1474 0.0806,0.1483 0.0791,0.1491 0.0776,0.15 0.0761,0.1508 0.0746,0.1516 0.0731,0.1525 0.0716,0.1532 0.07,0.154 0.0685,0.1548 0.0669,0.1555 0.0653,0.1563 0.0638,0.1569 0.0622,0.1577 0.0606,0.1583 0.059,0.1591 0.0574,0.1596 0.0558,0.1604 0.0542,0.1609 0.0526,0.1616 0.0509,0.1621 0.0493,0.1627 0.0476,0.1633 0.046,0.1638 0.0443,0.1644 0.0427,0.1649 0.0409,0.1653 0.0394,0.1659 0.0376,0.1663 0.0359,0.1668 0.0343,0.1671 0.0325,0.1677 0.0308,0.168 0.0292,0.1684 0.0274,0.1687 0.0257,0.1691 0.024,0.1695 0.0222,0.1697 0.0205,0.1701 0.0188,0.1703 0.017,0.1706 0.0153,0.1708 0.0136,0.1711 0.0118,0.1713 0.01,0.1715 0.0083,0.1716 0.0066,0.1719 0.0047,0.1719 0.0031,0.1721 0.0012,0.1722 -5e-4,0.1723 -0.0023,0.1724 -0.0041,0.1725 -0.0058,0.1724 -0.0076,0.1725 -0.0093,0.1725 -0.0112,0.1725 -0.0129,0.1725 -0.0147,0.1724 -0.0165,0.1724 -0.0182,0.1723 -0.0201,0.1721 -0.0218,0.1721 -0.0235,0.1719 -0.0254,0.1718 -0.0271,0.1716 -0.0289,0.1714 -0.0307,0.1712 -0.0324,0.171 -0.0342,0.1708 -0.036,0.1705 -0.0378,0.1702 -0.0395,0.17 -0.0412,0.1696 -0.0431,0.1693 -0.0448,0.1689 -0.0465,0.1686 -0.0483,0.1682 -0.05,0.1678 -0.0518,0.1675 -0.0536,0.1669 -0.0552,0.1666 -0.057,0.166 -0.0588,0.1656 -0.0604,0.1651 -0.0622,0.1645 -0.0639,0.164 -0.0656,0.1635 -0.0673,0.1629 -0.069,0.1623 -0.0707,0.1618 -0.0724,0.161 -0.0741,0.1605 -0.0758,0.1598 -0.0774,0.1591 -0.0792,0.1585 -0.0807,0.1577 -0.0825,0.1571 -0.084,0.1562 -0.0858,0.1556 -0.0873,0.1547 -0.089,0.154 -0.0906,0.1532 -0.0922,0.1523 -0.0938,0.1516 -0.0955,0.1506 -0.097,0.1498 -0.0985,0.1489 -0.1002,0.148 -0.1017,0.1471 -0.1033,0.1462 -0.1048,0.1452 -0.1064,0.1443 -0.1079,0.1433 -0.1094,0.1423 -0.1109,0.1412 -0.1124,0.1403 -0.1139,0.1392 -0.1154,0.1381 -0.1169,0.1371 -0.1183,0.136 -0.1198,0.1349 -0.1212,0.1338 -0.1226,0.1327 -0.124,0.1315 -0.1255,0.1304 -0.1268,0.1291 -0.1283,0.128 -0.1296,0.1268 -0.1309,0.1256 -0.1323,0.1244 -0.1336,0.1231 -0.135,0.1219 -0.1363,0.1205 -0.1375,0.1193 -0.1389,0.1181 -0.1401,0.1167 -0.1414,0.1153 -0.1426,0.1141 -0.1439,0.1127 -0.1451,0.1113 -0.1463,0.1099 -0.1475,0.1086 -0.1486,0.1072 -0.1499,0.1057 -0.151,0.1044 -0.1521,0.1029 -0.1532,0.1014 -0.1544,0.1 -0.1554,0.0986 -0.1565,0.097 -0.1576,0.0956 -0.1587,0.094 -0.1597,0.0926 -0.1606,0.091 -0.1618,0.0894 -0.1626,0.088 -0.1637,0.0863 -0.1646,0.0848 -0.1656,0.0833 -0.1665,0.0816 -0.1674,0.08 -0.1683,0.0785 -0.1692,0.0768 -0.17,0.0752 -0.1709,0.0735 -0.1717,0.0719 -0.1725,0.0703 -0.1733,0.0686 -0.1741,0.0669 -0.1749,0.0653 -0.1756,0.0635 -0.1764,0.0619 -0.177,0.0601 -0.1777,0.0585 -0.1785,0.0567 -0.1791,0.055 -0.1797,0.0533 -0.1803,0.0515 -0.181,0.0498 -0.1815,0.0481 -0.1822,0.0462 -0.1826,0.0445 -0.1832,0.0428 -0.1838,0.0409 -0.1842,0.0392 -0.1847,0.0374 -0.1852,0.0356 -0.1856,0.0338 -0.186,0.0319 -0.1865,0.0302 -0.1868,0.0284 -0.1873,0.0265 -0.1875,0.0247 -0.1879,0.0229 -0.1883,0.021 -0.1885,0.0192 -0.1888,0.0174 -0.189,0.0155 -0.1893,0.0137 -0.1895,0.0118 -0.1898,0.01 -0.1899,0.0081 -0.19,0.0062 -0.1903,0.0044 -0.1903,0.0025 -0.1905,7e-4 -0.1905,-0.0012 -0.1906,-0.0031 -0.1907,-0.0049 -0.1907,-0.0069 -0.1907,-0.0087 -0.1907,-0.0105 -0.1906,-0.0125 -0.1907,-0.0143 -0.1905,-0.0162 -0.1905,-0.0181 -0.1904,-0.0199 -0.1902,-0.0218 -0.1901,-0.0237 -0.19,-0.0256 -0.1897,-0.0275 -0.1896,-0.0293 -0.1893,-0.0312 -0.1891,-0.033 -0.1889,-0.035 L 18.6923,41.6198 18.504,41.5812 18.3161,41.5406 18.1284,41.4982 17.9412,41.454 17.7543,41.4079 17.5678,41.3599 17.3817,41.3101 17.1961,41.2585 17.0109,41.205 16.8261,41.1497 16.6419,41.0925 16.4582,41.0335 16.275,40.9727 16.0923,40.91 15.9102,40.8455 15.7287,40.7793 15.5478,40.7112 15.3675,40.6413 15.1879,40.5696 15.0089,40.4961 14.8306,40.4208 14.653,40.3438 14.4761,40.265 14.2999,40.1844 14.1245,40.102 13.9499,40.0179 13.7761,39.932 13.603,39.8444 13.4308,39.7551 13.2595,39.664 13.0889,39.5713 12.9193,39.4768 12.7506,39.3806 12.5828,39.2827 12.4159,39.1831 12.25,39.0819 12.085,38.9789 11.921,38.8744 11.7581,38.7681 11.5961,38.6603 11.4352,38.5507 11.2754,38.4396 11.1166,38.3269 10.95891,38.2125 10.80233,38.0966 10.64687,37.979 10.49256,37.8599 10.3394,37.7393 10.18741,37.617 10.03662,37.4933 9.88703,37.368 9.73866,37.2412 9.59153,37.1129 9.44566,36.983 9.30106,36.8517 9.15775,36.719 9.01573,36.5847 8.87504,36.4491 8.73568,36.3119 8.59766,36.1734 8.46101,36.0335 8.32574,35.8921 8.19186,35.7494 8.05939,35.6053 7.92835,35.4598 7.79874,35.313 7.67058,35.1649 7.54389,35.0154 7.41868,34.8647 7.29497,34.7126 7.17276,34.5593 7.05208,34.4047 6.93293,34.2489 6.81533,34.0918 6.69929,33.9335 6.58483,33.774 6.47195,33.6133 6.36068,33.4515 6.25102,33.2885 6.14299,33.1243 6.0366,32.9591 5.93185,32.7927 5.82877,32.6252 5.72737,32.4567 5.62765,32.287 5.52964,32.1164 5.43333,31.9447 5.33874,31.772 5.24589,31.5982 5.15477,31.4235 5.06542,31.2479 4.97782,31.0713 4.89201,30.8938 4.80798,30.7153 4.72574,30.536 4.64531,30.3557 4.56669,30.1747 4.4899,29.9927 4.41495,29.81 4.34183,29.6264 4.27057,29.442 4.20118,29.2569 4.13365,29.071 4.068,28.8844 4.00423,28.6971 3.94236,28.509 3.8824,28.3203 3.82434,28.1309 3.76821,27.9409 3.714,27.7502 3.66172,27.5589 3.61138,27.3671 3.56299,27.1747 3.51655,26.9817 3.47208,26.7882 3.42957,26.5941 3.38903,26.3996 3.35047,26.2046 3.31389,26.0092 3.2793,25.8133 3.24671,25.617 3.21611,25.4203 3.18752,25.2232 3.16094,25.0257 3.13638,24.8279 3.11383,24.6298 3.0933,24.4314 3.0748,24.2328 3.05833,24.0338 3.04389,23.8346 3.03149,23.6352 3.02113,23.4356 3.01281,23.2358 3.00653,23.0359 3.0023,22.8358 3.00013,22.6356 Z M 22.3781,7.76699 22.3325,3.91679 22.2892,3.92097 22.0904,3.94213 21.8921,3.96521 21.6939,3.99025 21.4965,4.01715 21.2993,4.04601 21.1023,4.0768 20.9059,4.10948 20.7097,4.14411 20.5145,4.18054 20.319,4.21901 20.1249,4.25921 19.9305,4.30144 19.7371,4.34546 19.5439,4.39144 19.3516,4.43918 19.1598,4.48884 18.9685,4.54035 18.7778,4.59372 18.588,4.64888 18.3985,4.70594 18.21,4.76477 18.022,4.82547 17.835,4.88785 17.6483,4.9522 17.4626,5.01827 17.2778,5.08609 17.0935,5.15576 16.9102,5.22713 16.7279,5.30022 16.5461,5.37519 16.3652,5.45186 16.1852,5.53028 16.0062,5.61035 15.8281,5.69216 15.651,5.77562 15.4745,5.86092 15.2993,5.94778 15.125,6.03633 14.9517,6.12655 14.7794,6.21844 14.6083,6.3119 14.4379,6.40709 14.2686,6.50393 14.1008,6.60215 13.9335,6.70229 13.7678,6.80376 13.6032,6.90681 13.4394,7.01155 13.2769,7.11782 13.1156,7.22564 12.9558,7.33473 12.7966,7.44575 12.639,7.55796 12.4826,7.67172 12.3273,7.78704 12.1734,7.90373 12.0209,8.02182 11.8693,8.14157 11.7194,8.26246 11.5706,8.38494 11.4232,8.50875 11.2771,8.634 11.1325,8.76045 10.98898,8.8885 10.8471,9.01769 10.70643,9.14837 10.56739,9.28015 10.42962,9.41336 10.29338,9.54777 10.15853,9.68351 10.02499,9.82065 9.8932,9.95873 9.76289,10.098 9.63374,10.2389 9.50638,10.3807 9.38058,10.5235 9.25607,10.6678 9.13337,10.813 9.01203,10.9595 8.89232,11.107 8.77418,11.2557 8.65758,11.4054 8.5427,11.5561 8.42932,11.7079 8.3175,11.8609 8.20748,12.0146 8.09893,12.1696 7.99211,12.3254 7.88694,12.4822 7.78335,12.64 7.68151,12.7987 7.58134,12.9582 7.48285,13.1187 7.38612,13.28 7.29098,13.4423 7.19755,13.6055 7.10596,13.7693 7.01601,13.934 6.92778,14.0996 6.84134,14.2659 6.7566,14.433 l -0.08292,0.1677 -0.08119,0.1685 -0.0794,0.1692 -0.07767,0.17 -0.07583,0.1705 -0.07411,0.1713 -0.0723,0.1719 -0.07045,0.1724 -0.06869,0.1731 -0.06689,0.1737 -0.06505,0.1742 -0.06325,0.1748 -0.06138,0.1752 -0.05961,0.1759 -0.05776,0.1763 -0.05591,0.1768 -0.05406,0.1771 -0.05226,0.1778 -0.05037,0.178 -0.04853,0.1785 -0.04669,0.1788 -0.04483,0.1793 -0.04296,0.1795 -0.0411,0.1799 -0.03924,0.1802 -0.03737,0.1805 -0.0355,0.1807 -0.03364,0.181 -0.03176,0.1812 -0.02989,0.1815 -0.02801,0.1816 -0.02614,0.1818 -0.02426,0.182 -0.02239,0.1821 -0.02051,0.1822 -0.01863,0.1824 -0.01675,0.1824 -0.01488,0.1824 -0.013,0.1826 -0.01112,0.1826 -0.00925,0.1825 -0.00737,0.1826 -0.0055,0.1825 -0.00362,0.1825 -0.00176,0.1824 1.2e-4,0.1824 0.00198,0.1822 0.00385,0.1822 0.00571,0.182 0.00757,0.1818 0.00944,0.1817 0.01128,0.1814 0.01314,0.1813 0.01499,0.181 0.01684,0.1808 0.01867,0.1806 0.02052,0.1802 0.02235,0.18 0.02418,0.1796 0.02601,0.1793 0.02784,0.179 0.02964,0.1785 0.03147,0.1782 0.03327,0.1778 0.03507,0.1773 0.03687,0.177 0.03866,0.1764 0.04045,0.176 0.04223,0.1755 0.044,0.175 0.04578,0.1745 0.04752,0.1738 0.0493,0.1734 0.05104,0.1728 0.05278,0.1722 0.05452,0.1716 0.05623,0.1709 0.05796,0.1703 0.05968,0.1696 0.06138,0.169 0.06306,0.1682 0.06479,0.1676 0.06643,0.1668 0.06811,0.1661 0.06979,0.1653 0.07143,0.1645 0.07309,0.1638 0.07472,0.163 0.07635,0.1621 0.07796,0.1613 0.07958,0.1604 0.08117,0.1596 0.08277,0.1587 0.08434,0.1578 0.08592,0.1569 0.08747,0.1559 0.08902,0.155 0.09056,0.1541 0.0921,0.153 0.09357,0.1521 0.09514,0.1511 0.09659,0.15 0.0981,0.1491 0.09957,0.148 0.10101,0.1469 0.10246,0.1459 0.10393,0.1448 0.10532,0.1437 0.10677,0.1426 0.10812,0.1414 0.10957,0.1403 0.11088,0.1391 0.11228,0.138 0.11366,0.1369 0.11493,0.1356 0.1163,0.1344 0.11759,0.1332 0.11893,0.132 0.12018,0.1307 0.12143,0.1295 0.12272,0.1282 0.12395,0.127 0.12522,0.1257 0.1264,0.1243 0.12764,0.1231 0.12878,0.1217 0.12997,0.1205 0.13117,0.1191 0.13229,0.1177 0.13335,0.1163 0.13458,0.115 0.1357,0.1136 0.1366,0.1122 0.1379,0.1109 0.1388,0.1093 0.1399,0.108 0.1409,0.1066 0.142,0.1051 0.1429,0.1036 0.1439,0.1022 0.1448,0.1007 0.1459,0.0993 0.1467,0.0977 0.1478,0.0963 0.1485,0.0948 0.1495,0.0932 0.1504,0.0918 0.1511,0.0902 0.1521,0.0887 0.1528,0.0871 0.1537,0.0856 0.1544,0.084 0.1553,0.0825 0.1559,0.0809 0.1567,0.0794 0.1575,0.0777 0.1582,0.0762 0.1588,0.0746 0.1595,0.073 0.1601,0.0713 0.1609,0.0698 0.1614,0.0681 0.1621,0.0666 0.1626,0.0649 0.1632,0.0632 0.1638,0.0617 0.1642,0.06 0.1648,0.0583 0.1654,0.0567 0.1658,0.0551 0.1663,0.0534 0.1666,0.0517 0.1673,0.0501 0.1675,0.0484 0.168,0.0467 0.1684,0.0451 0.1687,0.0434 0.1691,0.0417 0.1693,0.04 0.1698,0.0384 0.17,0.0366 0.1702,0.035 0.1706,0.0333 0.1708,0.0316 0.171,0.0299 0.1712,0.0282 0.1714,0.0265 0.1716,0.0248 0.1718,0.0231 0.1718,0.0215 0.172,0.0197 0.1721,0.018 0.1722,0.0164 0.1723,0.0146 0.1723,0.013 0.1723,0.0112 0.1724,0.0096 0.1723,0.0078 0.1723,0.0062 0.1723,0.0045 0.1723,0.0027 0.1721,0.0011 0.1721,-6e-4 0.172,-0.0023 0.1718,-0.0039 0.1717,-0.0057 0.1716,-0.0073 0.1714,-0.009 0.1711,-0.0107 0.171,-0.0123 0.1708,-0.014 0.1705,-0.0157 0.1702,-0.0174 0.17,-0.019 0.1696,-0.0206 0.1694,-0.0223 0.169,-0.024 0.1687,-0.0256 0.1683,-0.0272 0.168,-0.0289 0.1676,-0.0305 0.1671,-0.0321 0.1667,-0.0337 0.1663,-0.0354 0.1658,-0.0369 0.1653,-0.0386 0.1649,-0.0402 0.1643,-0.0417 0.1638,-0.0434 0.1632,-0.0449 0.1628,-0.0465 0.1621,-0.0481 0.1616,-0.0496 0.1609,-0.0511 0.1604,-0.0528 0.1597,-0.0542 0.1589,-0.0558 0.1585,-0.0574 0.1577,-0.0588 0.157,-0.0604 0.1563,-0.0618 0.1555,-0.0633 0.1548,-0.0649 0.1541,-0.0663 0.1533,-0.0678 0.1524,-0.0692 0.1518,-0.0707 0.1509,-0.0722 0.15,-0.0735 0.1493,-0.0751 0.1483,-0.0764 0.1475,-0.0778 0.1467,-0.0793 0.1456,-0.0806 0.1448,-0.082 0.1438,-0.0833 0.1431,-0.0848 0.1418,-0.086 0.1412,-0.0875 0.1399,-0.0887 0.139,-0.0901 0.1381,-0.0914 0.1371,-0.0928 0.1358,-0.0938 0.1349,-0.0953 0.1339,-0.0965 0.1328,-0.0977 0.1318,-0.0991 0.1305,-0.1001 0.1297,-0.1016 0.1283,-0.1026 0.1272,-0.1038 0.1263,-0.1051 0.125,-0.1063 0.1237,-0.1073 0.1227,-0.1086 0.1214,-0.1096 0.1203,-0.1108 0.1191,-0.1119 0.1177,-0.1129 0.1167,-0.1142 0.1154,-0.1152 0.1141,-0.1162 0.1129,-0.1173 0.1115,-0.1182 0.1102,-0.1192 0.1092,-0.1206 0.1076,-0.1212 0.1065,-0.1224 0.105,-0.1232 0.1038,-0.1243 0.1024,-0.1251 0.101,-0.1261 0.0998,-0.1271 0.0983,-0.1278 0.0971,-0.1289 0.0955,-0.1296 0.0943,-0.1306 0.093,-0.1315 0.0912,-0.132 0.0901,-0.1331 0.0885,-0.1337 0.0872,-0.1347 0.0859,-0.1355 0.0842,-0.136 0.0828,-0.1368 0.0815,-0.1379 0.0798,-0.1381 0.0785,-0.1391 0.0771,-0.1398 0.0754,-0.1402 0.0741,-0.1412 0.0726,-0.1418 0.0709,-0.1419 0.0696,-0.1431 0.0681,-0.1436 0.0665,-0.144 0.065,-0.1446 0.0635,-0.1452 0.0619,-0.1456 0.0605,-0.1464 0.0589,-0.1468 0.0573,-0.1469 0.0558,-0.148 0.0542,-0.148 0.0528,-0.1487 0.0512,-0.149 0.0496,-0.1495 0.0479,-0.1495 0.0466,-0.1506 0.0448,-0.1504 0.0433,-0.1509 0.0418,-0.1511 0.0402,-0.1517 0.0385,-0.1517 0.0371,-0.1522 0.0354,-0.1525 0.0339,-0.1526 0.0323,-0.153 0.0306,-0.1529 0.0291,-0.1536 0.0275,-0.1532 0.0259,-0.1538 0.0243,-0.1539 0.0227,-0.1539 0.0212,-0.1542 0.0195,-0.154 0.018,-0.1547 0.0163,-0.1541 0.0148,-0.1546 0.0131,-0.1543 0.0116,-0.1548 0.01,-0.1542 0.0084,-0.1547 0.0068,-0.1548 0.0052,-0.1544 0.0037,-0.1541 0.002,-0.1547 5e-4,-0.1544 L 39.1661,24.1268 39.1634,23.9727 39.1591,23.8186 39.1532,23.6651 39.1458,23.511 39.1368,23.3576 39.1262,23.2042 39.1141,23.0513 39.1004,22.8981 39.0852,22.7456 39.0684,22.593 39.05,22.4409 39.0301,22.2889 39.0087,22.1374 38.9856,21.9858 38.9611,21.8349 38.9351,21.6845 38.9075,21.534 38.8783,21.384 38.8477,21.2346 38.8155,21.0851 38.782,20.9367 38.7467,20.7881 38.7102,20.6405 38.6719,20.4927 38.6323,20.346 38.5912,20.1995 38.5486,20.0533 38.5046,19.908 38.4591,19.7632 38.412,19.6185 38.3637,19.4749 38.3137,19.3314 38.2625,19.1888 38.2097,19.0465 38.1556,18.9052 38.0999,18.7641 38.0429,18.6238 37.9846,18.4844 37.9249,18.3456 37.8635,18.207 37.8012,18.0697 37.7371,17.9325 37.6719,17.7966 37.6053,17.6612 37.5372,17.5263 37.468,17.3925 37.3973,17.2593 37.3252,17.1267 37.2522,16.9954 37.1775,16.8644 37.1017,16.7345 37.0244,16.6052 36.9462,16.4772 36.8663,16.3495 36.7855,16.223 36.7032,16.0971 36.6198,15.9723 36.5353,15.8486 36.4493,15.7254 36.3622,15.6033 36.274,15.4821 36.1845,15.362 36.0939,15.2426 36.0021,15.1244 35.9092,15.007 35.8151,14.8907 35.7199,14.7754 35.6235,14.661 35.526,14.5477 35.4275,14.4354 35.328,14.3242 35.2273,14.214 35.1253,14.1047 35.0228,13.9969 34.9186,13.8897 34.8139,13.784 34.708,13.6791 34.6012,13.5755 34.493,13.4727 34.3844,13.3715 34.2744,13.2711 34.1635,13.1719 34.052,13.074 33.9394,12.9772 33.8255,12.8813 33.711,12.7868 33.5957,12.6935 33.4794,12.6014 33.3622,12.5104 33.2444,12.4209 33.1253,12.3321 33.0058,12.245 32.8853,12.159 32.7639,12.0741 32.642,11.9906 32.5188,11.9081 32.3956,11.8273 32.271,11.7474 32.146,11.6689 32.02,11.5916 l -0.1265,-0.076 -0.1272,-0.0746 -0.1277,-0.0732 -0.1289,-0.0723 -0.1289,-0.0706 -0.13,-0.0695 -0.1305,-0.0681 -0.131,-0.0667 -0.1318,-0.0655 -0.1323,-0.0642 -0.1328,-0.0627 -0.1335,-0.0615 -0.1338,-0.06 -0.1345,-0.0588 -0.1393,-0.0592 -0.131,-0.0541 L 29.784,10.4798 29.6479,10.4267 29.5107,10.3746 29.3735,10.3242 29.2357,10.275 29.0976,10.2273 28.9589,10.1808 28.8201,10.1359 28.6807,10.0923 28.541,10.0501 28.4012,10.0094 28.2608,9.96996 28.1199,9.93188 27.9792,9.89535 27.8382,9.86021 27.6963,9.82636 27.5549,9.79407 27.4128,9.76307 27.2707,9.73357 27.1281,9.70541 26.9857,9.67873 26.8429,9.65343 26.7002,9.6296 26.5568,9.6071 26.4138,9.58609 26.2705,9.56647 26.127,9.54826 25.9835,9.53148 25.84,9.51614 25.6964,9.5022 25.5527,9.48968 25.4089,9.47857 25.265,9.46887 25.1215,9.46061 24.9779,9.45376 24.8338,9.44831 24.6905,9.44429 24.5469,9.44167 l -0.1435,-0.0012 -0.1437,2e-4 -0.0288,3.3e-4 0.0453,3.8222 0.0815,-4e-4 0.1049,6e-4 0.1049,0.0016 0.105,0.0027 0.1051,0.0037 0.1051,0.0048 0.1051,0.0058 0.1052,0.0068 0.1052,0.0079 0.1052,0.0089 0.1052,0.01 0.1051,0.011 0.1052,0.0121 0.1051,0.0131 0.105,0.0141 0.105,0.0153 0.1049,0.0162 0.1048,0.0173 0.1048,0.0184 0.1046,0.0194 0.1045,0.0205 0.1044,0.0215 0.1043,0.0225 0.1041,0.0236 0.1039,0.0247 0.1038,0.0257 0.1035,0.0267 0.1034,0.0278 0.1032,0.0288 0.103,0.0299 0.1028,0.0309 0.1025,0.0319 0.1022,0.033 0.102,0.034 0.1018,0.0351 0.1014,0.0361 0.1012,0.0371 0.1008,0.0381 0.1006,0.0392 0.1002,0.0402 0.0999,0.0412 0.0995,0.0423 0.0992,0.0432 0.0988,0.0443 0.0984,0.0452 0.098,0.0463 0.0977,0.0473 0.0972,0.0483 0.0968,0.0493 0.0964,0.0503 0.0959,0.0512 0.0955,0.0523 0.095,0.0532 0.0945,0.0542 0.0941,0.0552 0.0936,0.0562 0.093,0.0571 0.0925,0.0581 0.092,0.0591 0.0915,0.06 0.0909,0.0609 0.0904,0.0619 0.0898,0.0629 0.0892,0.0637 0.0886,0.0647 0.088,0.0657 0.0875,0.0665 0.0867,0.0675 0.0862,0.0684 0.0855,0.0692 0.0849,0.0702 0.0842,0.0711 0.0836,0.0719 0.0829,0.0728 0.0822,0.0737 0.0815,0.0746 0.0807,0.0754 0.0801,0.0763 0.0793,0.0771 0.0786,0.078 0.0779,0.0788 0.0771,0.0797 0.0764,0.0804 0.0755,0.0813 0.0748,0.0821 0.074,0.0829 0.0732,0.0836 0.0724,0.0845 0.0716,0.0852 0.0708,0.086 0.0699,0.0868 0.0691,0.0875 0.0682,0.0883 0.0674,0.089 0.0665,0.0898 0.0656,0.0904 0.0648,0.0912 0.0638,0.0919 0.063,0.0926 0.062,0.0933 0.0611,0.0939 0.0602,0.0947 0.0593,0.0953 0.0584,0.0959 0.0574,0.0966 0.0564,0.0973 0.0555,0.0978 0.0545,0.0985 0.0535,0.0991 0.0526,0.0997 0.0516,0.1003 0.0505,0.1009 0.0496,0.1015 0.0486,0.102 0.0475,0.1025 0.0465,0.1032 0.0455,0.1036 0.0445,0.1042 0.0434,0.1047 0.0424,0.1052 0.0413,0.1057 0.0402,0.1061 0.0392,0.1067 0.0381,0.1071 0.0371,0.1076 0.036,0.108 0.0348,0.1085 0.0338,0.1088 0.0327,0.1093 0.0316,0.1097 0.0305,0.1101 0.0293,0.1105 0.0283,0.1108 0.0271,0.1112 0.026,0.1115 0.0249,0.1119 0.0237,0.1122 0.0226,0.1125 0.0214,0.1128 0.0203,0.1132 0.0192,0.1134 0.018,0.1136 0.0168,0.114 0.0157,0.1141 0.0145,0.1144 0.0134,0.1147 0.0121,0.1149 0.011,0.115 0.0099,0.1153 0.0086,0.1154 0.0075,0.1156 0.0062,0.1157 0.0051,0.1159 0.0039,0.1161 0.0027,0.1161 0.0015,0.1163 3e-4,0.1164 -9e-4,0.1164 -0.0021,0.1165 -0.0033,0.1166 -0.0045,0.1167 -0.0057,0.1166 -0.0069,0.1167 -0.0081,0.1168 -0.0093,0.1167 -0.0106,0.1167 -0.0117,0.1167 -0.013,0.1166 -0.0141,0.1167 -0.0154,0.1165 -0.0166,0.1165 -0.0178,0.1164 -0.019,0.1163 -0.0202,0.1162 -0.0215,0.1161 -0.0226,0.116 -0.0239,0.1158 -0.0251,0.1157 -0.0262,0.1155 -0.0275,0.1153 -0.0287,0.1151 -0.0299,0.115 -0.0311,0.1147 -0.0323,0.1145 -0.0335,0.1142 -0.0347,0.114 -0.0359,0.1138 -0.0372,0.1135 -0.0383,0.1131 -0.0395,0.1129 -0.0406,0.1126 -0.0419,0.1122 -0.0431,0.1119 -0.0442,0.1116 -0.0454,0.1112 -0.0466,0.1109 -0.0478,0.1104 -0.0489,0.1101 -0.0501,0.1097 -0.0513,0.1092 -0.0524,0.1088 -0.0536,0.1084 -0.0548,0.1079 -0.0559,0.1075 -0.057,0.1069 -0.0582,0.1065 -0.0593,0.106 -0.0604,0.1055 -0.0616,0.1049 -0.0627,0.1045 -0.0638,0.1038 -0.0649,0.1034 -0.0661,0.1027 -0.0671,0.1022 -0.0683,0.1015 -0.0693,0.101 -0.0704,0.1004 -0.0715,0.0997 -0.0726,0.0991 -0.0736,0.0985 -0.0747,0.0978 -0.0758,0.0971 -0.0768,0.0964 -0.0779,0.0958 -0.0789,0.095 -0.0799,0.0944 -0.081,0.0936 -0.082,0.0929 -0.083,0.0921 -0.084,0.0914 -0.085,0.0906 -0.0859,0.0899 -0.087,0.089 -0.0879,0.0883 -0.089,0.0874 -0.0898,0.0867 -0.0909,0.0858 -0.0917,0.0849 -0.0927,0.0842 -0.0937,0.0832 -0.0945,0.0824 -0.0955,0.0816 -0.0963,0.0806 -0.0973,0.0798 -0.0981,0.0788 -0.0991,0.0779 -0.0999,0.077 -0.1007,0.0761 -0.1016,0.0751 -0.1025,0.0742 -0.1032,0.0733 -0.1041,0.0722 -0.1049,0.0713 -0.1058,0.0703 -0.1065,0.0693 -0.1073,0.0683 -0.108,0.0673 -0.1089,0.0662 -0.1095,0.0653 -0.1104,0.0642 -0.111,0.0631 -0.1118,0.0621 -0.1125,0.0611 -0.1132,0.06 -0.1139,0.0589 -0.1146,0.0578 -0.1152,0.0567 -0.1159,0.0557 -0.1166,0.0545 -0.1172,0.0534 -0.1178,0.0523 -0.1184,0.0512 -0.1191,0.05 -0.1196,0.0489 -0.1202,0.0478 -0.1208,0.0466 -0.1213,0.0455 -0.1219,0.0443 -0.1224,0.0431 -0.123,0.0419 -0.1234,0.0408 -0.124,0.0395 -0.1244,0.0384 -0.1249,0.0372 -0.1254,0.0359 -0.1258,0.0348 -0.1263,0.0335 -0.1267,0.0323 -0.1271,0.0311 -0.1275,0.0299 -0.128,0.0286 -0.1282,0.0274 -0.1287,0.0261 -0.129,0.0249 -0.1293,0.0237 -0.1297,0.0224 -0.13,0.0211 -0.1302,0.0198 -0.1306,0.0186 -0.1309,0.0173 -0.1311,0.0161 -0.1313,0.0147 -0.1316,0.0135 -0.1318,0.0122 -0.132,0.0109 -0.1322,0.0096 -0.1324,0.0083 -0.1326,0.007 -0.1327,0.0057 -0.1329,0.0044 -0.133,0.0031 -0.1331,0.0018 -0.1333,5e-4 -0.1333,-8e-4 L 22.24,36.3764 22.1065,36.373 21.973,36.3682 21.8395,36.3621 21.7059,36.3547 21.5724,36.346 l -0.1336,-0.01 -0.1335,-0.0114 -0.1335,-0.0127 -0.1335,-0.014 -0.1334,-0.0153 -0.1333,-0.0166 -0.1333,-0.018 -0.1331,-0.0193 -0.133,-0.0206 -0.1329,-0.0219 -0.1328,-0.0233 -0.1326,-0.0245 -0.1324,-0.0259 -0.1322,-0.0273 -0.1321,-0.0285 -0.1318,-0.0298 -0.1316,-0.0312 -0.1314,-0.0325 -0.1311,-0.0338 -0.1309,-0.0351 -0.1306,-0.0364 -0.1302,-0.0377 -0.13,-0.039 -0.1297,-0.0403 -0.1293,-0.0417 -0.1289,-0.0429 -0.1287,-0.0442 -0.1282,-0.0455 -0.1278,-0.0468 -0.1275,-0.0481 -0.127,-0.0494 -0.1266,-0.0506 -0.1262,-0.052 -0.1257,-0.0532 -0.1252,-0.0544 -0.1247,-0.0558 -0.1243,-0.057 -0.1237,-0.0582 -0.1232,-0.0595 -0.1227,-0.0608 -0.1222,-0.062 -0.1215,-0.0632 -0.121,-0.0645 -0.1204,-0.0657 -0.1198,-0.0669 -0.1192,-0.0682 -0.1186,-0.0693 -0.1179,-0.0706 -0.1173,-0.0718 -0.1166,-0.0729 -0.1159,-0.0742 -0.1152,-0.0753 -0.1145,-0.0766 -0.1138,-0.0777 -0.1131,-0.0788 -0.1123,-0.08 -0.1116,-0.0812 -0.1108,-0.0823 -0.1101,-0.0835 -0.1092,-0.0846 -0.1084,-0.0857 -0.1076,-0.0869 -0.1068,-0.0879 -0.106,-0.0891 -0.1051,-0.0901 -0.1042,-0.0913 -0.1034,-0.0923 -0.1025,-0.0934 -0.1015,-0.0944 -0.1007,-0.0955 -0.0998,-0.0966 -0.0988,-0.0976 -0.0978,-0.0986 -0.0969,-0.0997 -0.096,-0.1006 -0.095,-0.1017 -0.0939,-0.1026 -0.093,-0.1037 -0.092,-0.1046 -0.0909,-0.1056 -0.09,-0.1065 L 11.8801,31.3196 11.7922,31.2111 11.7055,31.1018 11.6198,30.9915 11.5352,30.8803 11.4517,30.7682 11.3692,30.6553 11.2879,30.5414 11.2078,30.4267 11.1287,30.3111 11.0508,30.1947 10.97406,30.0775 10.89847,29.9594 10.82404,29.8405 10.7508,29.7208 10.67874,29.6003 10.60788,29.4791 10.53822,29.357 10.46977,29.2343 10.40255,29.1107 10.33656,28.9865 10.2718,28.8615 10.20829,28.7358 10.14604,28.6094 10.08505,28.4823 10.02533,28.3546 9.96689,28.2261 9.90973,28.0971 9.85387,27.9674 9.79931,27.837 9.74605,27.7061 9.69412,27.5746 9.6435,27.4424 9.59421,27.3097 9.54625,27.1765 9.49964,27.0426 9.45438,26.9083 9.41047,26.7734 9.36792,26.638 9.32674,26.5022 9.28693,26.3658 9.2485,26.229 9.21145,26.0917 9.1758,25.9539 9.14154,25.8158 9.10867,25.6772 9.07722,25.5382 9.04717,25.3988 9.01854,25.2591 8.99133,25.119 8.96554,24.9785 8.94118,24.8377 8.91826,24.6966 8.89677,24.5552 8.87672,24.4135 8.85812,24.2715 8.84097,24.1292 8.82527,23.9867 8.81102,23.844 8.79823,23.701 8.78691,23.5578 8.77705,23.4145 8.76865,23.2709 8.76173,23.1272 8.75628,22.9834 8.75231,22.8394 8.74981,22.6953 8.74879,22.551 8.74926,22.4067 8.7512,22.2623 8.75464,22.1179 8.75955,21.9734 8.76596,21.8288 8.77386,21.6843 8.78324,21.5397 8.79412,21.3952 8.80648,21.2506 8.82034,21.1062 8.8357,20.9617 8.85254,20.8174 8.87088,20.6731 8.89071,20.5289 8.91203,20.3848 8.93485,20.2409 8.95915,20.0971 8.98495,19.9535 9.01224,19.81 9.04102,19.6667 9.07128,19.5237 9.10304,19.3808 9.13628,19.2382 9.171,19.0958 9.2072,18.9537 9.24489,18.8119 9.28405,18.6703 9.32469,18.5291 9.36681,18.3882 9.41039,18.2476 9.45545,18.1073 9.50197,17.9675 9.54995,17.828 9.5994,17.6889 l 0.0509,-0.1387 0.05235,-0.1383 0.0538,-0.1378 0.05525,-0.1374 0.05669,-0.1369 0.05813,-0.1364 0.05956,-0.136 0.061,-0.1354 0.06241,-0.1349 0.06384,-0.1344 0.06525,-0.1338 0.06667,-0.1332 0.06807,-0.1327 0.06947,-0.132 0.07086,-0.1315 0.07226,-0.1308 0.07364,-0.1302 0.07501,-0.1296 0.07639,-0.1288 0.07776,-0.1282 0.07911,-0.1275 0.08048,-0.1268 0.0818,-0.1261 0.0832,-0.1253 0.0844,-0.1246 0.0859,-0.1238 0.0871,-0.1231 0.0884,-0.1223 0.0898,-0.1214 0.091,-0.1207 0.0924,-0.1198 0.0936,-0.119 0.0949,-0.1181 0.0961,-0.1172 0.0974,-0.1164 0.0987,-0.1155 0.0999,-0.1146 0.1011,-0.1136 0.1024,-0.1127 0.1035,-0.1118 0.1048,-0.1108 0.106,-0.1099 0.1071,-0.1088 0.1083,-0.1079 0.1095,-0.1069 0.1107,-0.1058 0.1118,-0.1049 0.1129,-0.1037 0.1141,-0.1028 0.1152,-0.1016 0.1162,-0.1006 0.1174,-0.0995 0.1185,-0.0984 0.1195,-0.0973 0.1206,-0.0962 0.1217,-0.095 0.1227,-0.0939 0.1237,-0.0927 0.1248,-0.0916 0.1257,-0.0904 0.1267,-0.0892 0.1278,-0.088 0.1287,-0.0868 0.1296,-0.0855 0.1307,-0.0844 0.1315,-0.0831 0.1325,-0.08186 0.1334,-0.08061 0.1343,-0.07934 0.1351,-0.07806 0.1361,-0.07678 0.1369,-0.07549 0.1377,-0.07417 0.1386,-0.07286 0.1394,-0.07154 0.1402,-0.07021 0.141,-0.06887 0.1418,-0.06752 0.1426,-0.06616 0.1433,-0.0648 0.1441,-0.06343 0.1448,-0.06204 0.1455,-0.06065 0.1462,-0.05926 0.1468,-0.05785 0.1476,-0.05644 0.1482,-0.05502 0.1489,-0.05359 0.1495,-0.05216 0.1501,-0.05072 0.1507,-0.04927 0.1512,-0.04781 0.1519,-0.04636 0.1524,-0.04489 0.153,-0.04341 0.1534,-0.04194 0.154,-0.04045 0.1545,-0.03896 0.155,-0.03746 0.1554,-0.03595 0.1559,-0.03446 0.1563,-0.03294 0.1567,-0.03142 0.1572,-0.02989 0.1575,-0.02837 0.1579,-0.02684 0.1583,-0.0253 0.1586,-0.02376 0.1589,-0.02221 0.1592,-0.02067 z m 0.0672,5.66911 -0.0458,-3.86421 -0.1305,0.01824 -0.1403,0.02103 -0.1404,0.02243 -0.1395,0.02371 -0.1397,0.02516 -0.139,0.02645 -0.1387,0.02781 -0.1382,0.02911 -0.1379,0.03049 -0.1376,0.03184 -0.1372,0.03315 -0.1366,0.03446 -0.1365,0.03584 -0.1311,0.03579 -0.1397,0.0397 -0.1349,0.0397 -0.1343,0.041 -0.1336,0.0422 -0.1333,0.0436 -0.1328,0.0449 -0.1322,0.0461 -0.1315,0.0473 -0.131,0.0487 -0.1304,0.0498 -0.1299,0.0512 -0.1289,0.0523 -0.1289,0.0537 -0.1279,0.0548 -0.1273,0.056 -0.1264,0.0572 -0.1261,0.0585 -0.1254,0.0597 -0.1243,0.0607 -0.1241,0.0621 -0.1228,0.0631 -0.1226,0.0645 -0.1214,0.0653 -0.1212,0.0669 -0.12,0.0676 -0.1192,0.0689 -0.1186,0.0701 -0.1177,0.0711 -0.1171,0.0724 -0.1159,0.0732 -0.1154,0.0745 -0.1143,0.0755 -0.1135,0.0765 -0.1127,0.0777 -0.112,0.0788 -0.1107,0.0795 -0.1101,0.0809 -0.1092,0.0818 -0.1082,0.0828 -0.1072,0.0837 -0.1065,0.0849 -0.1053,0.0857 -0.1044,0.0867 -0.1036,0.0879 -0.1023,0.0885 -0.1016,0.0897 -0.1006,0.0906 -0.0995,0.0914 -0.0984,0.0923 -0.0977,0.0934 -0.0963,0.094 -0.0954,0.095 -0.0945,0.096 -0.0933,0.0967 -0.0923,0.0977 -0.0912,0.0984 -0.0901,0.0992 -0.0891,0.1001 -0.0881,0.101 -0.0866,0.1015 -0.0858,0.1025 -0.0847,0.1033 -0.0835,0.1039 -0.0823,0.1046 -0.0814,0.1056 -0.0801,0.1061 -0.079,0.1069 -0.0778,0.1076 -0.0767,0.1083 -0.0754,0.1088 -0.0743,0.1096 -0.0732,0.1103 -0.072,0.1109 -0.0707,0.1114 -0.0695,0.1121 -0.0684,0.1129 -0.0672,0.1132 -0.0659,0.1139 -0.0648,0.1145 -0.0634,0.1148 -0.0623,0.1156 -0.0612,0.1162 -0.0597,0.1164 -0.0586,0.1172 -0.0573,0.1176 -0.0561,0.1179 -0.0548,0.1186 -0.0536,0.1189 -0.0523,0.1194 -0.0511,0.1198 -0.0497,0.1202 -0.0485,0.1206 -0.0473,0.1211 -0.046,0.1214 -0.0446,0.1217 -0.0435,0.1222 -0.042,0.1223 -0.0409,0.1228 -0.0395,0.1231 -0.0383,0.1234 -0.0369,0.1236 -0.0357,0.1239 -0.0343,0.1241 -0.03309,0.1245 -0.03176,0.1246 -0.03045,0.1249 -0.02914,0.1251 -0.02785,0.1252 -0.02655,0.1255 -0.02521,0.1256 -0.02393,0.1257 -0.02262,0.126 -0.02129,0.126 -0.02001,0.1262 -0.01867,0.1261 -0.01739,0.1264 -0.01606,0.1264 -0.01476,0.1265 -0.01345,0.1265 -0.01214,0.1266 -0.01083,0.1266 -0.0095,0.1265 -0.0082,0.1267 -0.0069,0.1266 -0.0056,0.1265 -0.0043,0.1265 -0.003,0.1264 -0.0017,0.1264 -4.1e-4,0.1264 8.9e-4,0.1262 0.0022,0.1261 0.0035,0.126 0.0048,0.1258 0.0061,0.1258 0.0073,0.1256 0.0086,0.1253 0.0099,0.1253 0.01118,0.125 0.01246,0.1248 0.01373,0.1246 0.01499,0.1244 0.01627,0.1242 0.01752,0.1238 0.01879,0.1237 0.02003,0.1232 0.02129,0.1231 0.02254,0.1228 0.02377,0.1223 0.02502,0.1222 0.02624,0.1217 0.02749,0.1215 0.02868,0.1209 0.02994,0.1207 0.03114,0.1203 0.03236,0.1199 0.0335,0.1194 0.0348,0.1191 0.0359,0.1186 0.0372,0.1182 0.0383,0.1178 0.0395,0.1172 0.0407,0.1167 0.0418,0.1163 0.043,0.1158 0.0442,0.1153 0.0453,0.1147 0.0464,0.1142 0.0476,0.1137 0.0487,0.1131 0.0499,0.1125 0.0509,0.112 0.0521,0.1113 0.0532,0.1108 0.0542,0.1102 0.0554,0.1095 0.0564,0.109 0.0575,0.1083 0.0586,0.1076 0.0596,0.107 0.0607,0.1063 0.0617,0.1056 0.0628,0.1049 0.0638,0.1043 0.0648,0.1035 0.0658,0.1028 0.0669,0.1022 0.0677,0.1012 0.0689,0.1007 0.0697,0.0998 0.0708,0.0991 0.0717,0.0983 0.0727,0.0975 0.0736,0.0967 0.0746,0.096 0.0754,0.0951 0.0764,0.0943 0.0773,0.0935 0.0782,0.0927 0.0791,0.0917 0.08,0.0911 0.0808,0.09 0.0817,0.0893 0.0825,0.0883 0.0834,0.0875 0.0842,0.0866 0.0851,0.0857 0.0858,0.0848 0.0867,0.0839 0.0875,0.083 0.0881,0.082 0.0891,0.0812 0.0897,0.0801 0.0905,0.0792 0.0913,0.0783 0.092,0.0773 0.0927,0.0764 0.0934,0.0753 0.0941,0.0744 0.0948,0.0734 0.0955,0.0725 0.0962,0.0714 0.0967,0.0704 0.0974,0.0694 0.0981,0.0684 0.0987,0.0674 0.0994,0.0664 0.0999,0.0653 0.1005,0.0643 0.1011,0.0633 0.1016,0.0622 0.1022,0.0612 0.1028,0.0601 0.1032,0.059 0.1039,0.058 0.1042,0.0569 0.1049,0.0559 0.1053,0.0548 0.1057,0.0536 0.1063,0.0527 0.1068,0.0515 0.1071,0.0505 0.1075,0.0493 0.1081,0.0483 0.1083,0.0471 0.1088,0.046 0.1092,0.045 0.1096,0.0438 0.1098,0.0427 0.1103,0.0416 0.1106,0.0405 0.1109,0.0394 0.1112,0.0382 0.1116,0.0372 0.1118,0.0359 0.1121,0.0349 0.1124,0.0337 0.1126,0.0326 0.1128,0.0315 0.1131,0.0303 0.1133,0.0293 0.1135,0.028 0.1137,0.0269 0.1139,0.0258 0.1141,0.0247 0.1142,0.0235 0.1143,0.0223 0.1146,0.0212 0.1145,0.0201 0.1148,0.019 0.1148,0.0177 0.1149,0.0167 0.115,0.0155 0.115,0.0144 0.1151,0.0132 0.1151,0.0121 0.1152,0.0109 0.1152,0.0098 0.1152,0.0086 0.1152,0.0076 0.1151,0.0063 0.1151,0.0053 0.1152,0.0041 0.115,0.003 0.1149,0.0018 0.1149,7e-4 0.1148,-4e-4 0.1147,-0.0016 0.1146,-0.0026 0.1144,-0.0038 0.1144,-0.0049 0.1141,-0.0061 0.114,-0.0071 0.1138,-0.0083 0.1137,-0.0094 0.1134,-0.0105 0.1133,-0.0116 0.1131,-0.0127 0.1128,-0.0138 0.1126,-0.0149 0.1123,-0.0159 0.1121,-0.0171 0.1118,-0.0182 0.1114,-0.0192 0.1113,-0.0204 0.1109,-0.0214 0.1106,-0.0224 0.1104,-0.0236 0.1098,-0.0246 0.1096,-0.0256 0.1092,-0.0268 0.1089,-0.0277 0.1085,-0.0288 0.1081,-0.0299 0.1077,-0.0309 0.1073,-0.0319 0.1068,-0.0329 0.1064,-0.034 0.1061,-0.035 0.1055,-0.036 0.1051,-0.037 0.1046,-0.038 0.1041,-0.039 0.1036,-0.04 0.1031,-0.041 0.1027,-0.042 0.1021,-0.0429 0.1015,-0.0439 0.1011,-0.0448 0.1004,-0.0458 0.1,-0.0468 0.0994,-0.0477 0.0986,-0.0485 0.0984,-0.0497 0.0975,-0.0504 0.0971,-0.0515 0.0962,-0.0522 0.0958,-0.0532 0.0952,-0.0541 0.0944,-0.055 0.0939,-0.0559 0.0932,-0.0567 0.0924,-0.0576 0.092,-0.0585 0.091,-0.0592 0.0905,-0.0602 0.0899,-0.0611 0.089,-0.0618 0.0882,-0.0625 0.0878,-0.0636 0.0868,-0.0641 0.0862,-0.0651 0.0855,-0.0659 0.0844,-0.0665 0.0841,-0.0675 0.0832,-0.0682 0.0821,-0.0688 0.0818,-0.0699 0.0807,-0.0703 0.0799,-0.071 0.0794,-0.0721 0.0782,-0.0724 0.0776,-0.0733 0.0768,-0.074 0.0758,-0.0746 0.0751,-0.0754 0.0743,-0.076 0.0734,-0.0767 0.0724,-0.0773 0.0717,-0.078 0.0709,-0.0786 0.0698,-0.0791 0.0692,-0.08 0.0681,-0.0804 0.0672,-0.081 0.0665,-0.0818 0.0654,-0.082 0.0646,-0.0829 0.0637,-0.0833 0.0628,-0.084 0.0618,-0.0844 0.0608,-0.0848 0.0601,-0.0857 0.059,-0.0859 0.0581,-0.0865 0.0573,-0.0871 0.056,-0.0873 0.0554,-0.088 0.0543,-0.0885 0.0534,-0.0888 0.0523,-0.0893 0.0516,-0.0899 0.0503,-0.0899 0.0496,-0.0908 0.0485,-0.0909 0.0474,-0.0913 0.0467,-0.092 0.0454,-0.0918 0.0447,-0.0928 0.0434,-0.0925 0.0428,-0.0935 0.0414,-0.0933 0.0407,-0.0941 0.0396,-0.094 0.0385,-0.0944 0.0376,-0.0948 0.0366,-0.0951 0.0354,-0.0951 0.0347,-0.0957 0.0334,-0.0958 0.0325,-0.096 0.0315,-0.0963 0.0305,-0.0966 0.0295,-0.0967 0.0284,-0.0968 0.0274,-0.0972 0.0263,-0.0972 0.0254,-0.0975 0.0243,-0.0976 0.0233,-0.0976 0.0223,-0.0981 0.0212,-0.098 0.0203,-0.0981 0.0191,-0.0981 0.0182,-0.0983 0.0171,-0.0987 0.0161,-0.0983 0.0151,-0.0986 0.014,-0.0987 0.013,-0.0985 0.012,-0.0987 0.011,-0.099 0.0099,-0.0983 0.009,-0.0991 0.0079,-0.0987 0.0068,-0.0985 0.0059,-0.0988 0.0048,-0.0986 0.0038,-0.0985 0.0028,-0.0988 0.0017,-0.0982 8e-4,-0.0986 -3e-4,-0.0983 -0.0012,-0.0983 -0.0023,-0.0979 -0.0033,-0.0981 -0.0043,-0.0979 -0.0053,-0.0975 -0.0063,-0.0978 -0.0073,-0.0975 -0.0082,-0.097 -0.0093,-0.0973 -0.0103,-0.0967 -0.0113,-0.0969 -0.0122,-0.0964 -0.0132,-0.0963 -0.0142,-0.0962 -0.0152,-0.0958 -0.0161,-0.0955 -0.0171,-0.0953 -0.0181,-0.095 -0.0191,-0.0951 -0.02,-0.0944 -0.0209,-0.0941 -0.0219,-0.094 -0.0229,-0.0938 -0.0237,-0.093 -0.0248,-0.0933 -0.0256,-0.0925 -0.0266,-0.0924 -0.0275,-0.0918 -0.0284,-0.0917 -0.0294,-0.0913 -0.0302,-0.0907 -0.0311,-0.0904 -0.0322,-0.0903 -0.0328,-0.0895 -0.0339,-0.0893 -0.0347,-0.0887 -0.0356,-0.0885 -0.0365,-0.0881 -0.0373,-0.0873 -0.0383,-0.0872 -0.039,-0.0865 -0.0399,-0.086 -0.0408,-0.0858 -0.0417,-0.0853 -0.0423,-0.0845 -0.0434,-0.0843 -0.044,-0.0835 -0.0449,-0.083 -0.0458,-0.0829 -0.0464,-0.0819 -0.0474,-0.0816 -0.0481,-0.0809 -0.049,-0.0806 -0.0495,-0.0797 -0.0506,-0.0795 -0.0511,-0.0786 -0.052,-0.0781 -0.0527,-0.0775 -0.0536,-0.0771 -0.0542,-0.0763 -0.0548,-0.0756 -0.0558,-0.0753 -0.0563,-0.0744 -0.0572,-0.0739 -0.0576,-0.0731 -0.0586,-0.0727 -0.0592,-0.0719 -0.0599,-0.0713 -0.0605,-0.0707 -0.0611,-0.0698 -0.062,-0.0694 -0.0624,-0.0685 -0.0632,-0.068 -0.0636,-0.067 -0.0646,-0.0667 -0.0649,-0.0657 -0.0658,-0.0653 -0.0662,-0.0643 -0.0667,-0.0636 -0.0674,-0.063 -0.0681,-0.0623 -0.0686,-0.0614 -0.0691,-0.0607 -0.0699,-0.0602 -0.0699,-0.059 -0.0709,-0.0587 -0.0713,-0.0577 -0.0718,-0.0569 -0.0724,-0.0564 -0.0728,-0.0554 -0.0731,-0.0545 -0.074,-0.054 -0.0745,-0.0533 -0.0745,-0.0521 -0.0755,-0.0517 -0.0754,-0.0505 -0.0761,-0.05 -0.0766,-0.0492 -0.0771,-0.0484 -0.0772,-0.0474 -0.078,-0.0468 -0.0781,-0.0458 -0.0788,-0.0452 -0.0787,-0.0441 -0.0794,-0.0434 -0.0798,-0.0427 -0.0801,-0.0418 -0.0803,-0.0408 -0.0808,-0.0402 -0.0812,-0.0393 -0.0813,-0.0384 -0.0815,-0.0375 -0.0824,-0.0369 -0.082,-0.0358 -0.0826,-0.035 -0.083,-0.0343 -0.0831,-0.0333 -0.0832,-0.0324 -0.0836,-0.0316 -0.0841,-0.0309 -0.0839,-0.0298 -0.0844,-0.0291 -0.0846,-0.0282 -0.0845,-0.0273 -0.0849,-0.0264 -0.0849,-0.0256 -0.0856,-0.0248 -0.0853,-0.0238 -0.0855,-0.023 -0.0857,-0.0221 -0.0858,-0.0213 -0.0862,-0.0204 -0.086,-0.0195 -0.086,-0.0186 -0.0864,-0.0178 -0.0866,-0.017 -0.0861,-0.0159 -0.0867,-0.0152 -0.0865,-0.0143 -0.0869,-0.0135 -0.0864,-0.0125 -0.0871,-0.0118 -0.0865,-0.0107 -0.0868,-0.01 -0.0868,-0.0091 -0.0867,-0.0082 -0.0869,-0.0074 -0.0865,-0.0065 -0.087,-0.0056 -0.0866,-0.0048 -0.0864,-0.0039 -0.087,-0.0031 -0.0863,-0.0022 -0.0864,-0.0013 -0.0863,-5e-4 -0.059,2e-4 0.0447,3.7754 0.0267,10e-5 0.0496,7e-4 0.0497,0.0012 0.0498,0.0016 0.0498,0.0023 0.0499,0.0027 0.0499,0.0032 0.05,0.0038 0.05,0.0043 0.0501,0.0048 0.0501,0.0053 0.0501,0.0058 0.0502,0.0064 0.0501,0.0069 0.0502,0.0074 0.0502,0.008 0.0502,0.0085 0.0501,0.009 0.0502,0.0096 0.0501,0.01 0.0501,0.0107 0.0501,0.0111 0.0501,0.0117 0.0499,0.0122 0.05,0.0127 0.0499,0.0133 0.0498,0.0138 0.0498,0.0143 0.0497,0.0149 0.0496,0.0154 0.0495,0.016 0.0495,0.0165 0.0493,0.017 0.0493,0.0175 0.0491,0.0181 0.049,0.0186 0.0489,0.0191 0.0488,0.0197 0.0486,0.0202 0.0485,0.0207 0.0484,0.0213 0.0482,0.0218 0.0481,0.0223 0.0479,0.0229 0.0477,0.0233 0.0476,0.0239 0.0473,0.0245 0.0472,0.0249 0.047,0.0255 0.0468,0.026 0.0466,0.0265 0.0464,0.027 0.0461,0.0275 0.046,0.0281 0.0457,0.0286 0.0455,0.0291 0.0452,0.0295 0.045,0.0301 0.0448,0.0307 0.0445,0.0311 0.0442,0.0316 0.044,0.0321 0.0437,0.0326 0.0434,0.0331 0.0431,0.0336 0.0429,0.0341 0.0425,0.0346 0.0422,0.035 0.042,0.0356 0.0416,0.036 0.0413,0.0365 0.041,0.037 0.0406,0.0375 0.0403,0.0379 0.0399,0.0384 0.0397,0.0389 0.0392,0.0393 0.0389,0.0398 0.0386,0.0402 0.0381,0.0407 0.0378,0.0412 0.0374,0.0416 0.0371,0.042 0.0366,0.0425 0.0362,0.0429 0.0359,0.0433 0.0354,0.0438 0.035,0.0442 0.0346,0.0446 0.0342,0.0451 0.0338,0.0454 0.0333,0.0459 0.0328,0.0462 0.0325,0.0467 0.032,0.0471 0.0315,0.0475 0.0311,0.0478 0.0307,0.0483 0.0301,0.0486 0.0297,0.049 0.0292,0.0494 0.0287,0.0497 0.0283,0.0501 0.0277,0.0505 0.0273,0.0508 0.0268,0.0512 0.0262,0.0515 0.0258,0.0518 0.0252,0.0522 0.0247,0.0526 0.0242,0.0528 0.0237,0.0532 0.0232,0.0535 0.0226,0.0538 0.0221,0.0541 0.0215,0.0544 0.021,0.0547 0.0205,0.055 0.0199,0.0553 0.0193,0.0556 0.0188,0.0558 0.0182,0.0561 0.0176,0.0564 0.0171,0.0566 0.0165,0.0569 0.0159,0.0572 0.0154,0.0573 0.0148,0.0576 0.0141,0.0579 0.0136,0.0581 0.013,0.0582 0.0124,0.0586 0.0118,0.0587 0.0111,0.0588 0.0106,0.0592 0.01,0.0593 0.0094,0.0594 0.0087,0.0597 0.0081,0.0598 0.0075,0.06 0.0069,0.0602 0.0063,0.0603 0.0056,0.0604 0.005,0.0606 0.0044,0.0608 0.0037,0.0608 0.0031,0.061 0.0024,0.0611 0.0019,0.0612 0.0011,0.0613 6e-4,0.0614 -2e-4,0.0614 -7e-4,0.0616 -0.0014,0.0617 -0.0021,0.0617 -0.0027,0.0618 -0.0034,0.0618 -0.004,0.0619 -0.0047,0.0619 -0.0054,0.062 -0.006,0.062 -0.0066,0.062 -0.0074,0.062 -0.008,0.0621 -0.0086,0.0621 -0.0093,0.062 -0.01,0.062 -0.0107,0.062 -0.0113,0.062 -0.012,0.062 -0.0126,0.0619 -0.0134,0.0619 -0.014,0.0618 -0.0146,0.0618 -0.0154,0.0617 -0.016,0.0617 -0.0166,0.0615 -0.0174,0.0615 -0.018,0.0613 -0.0187,0.0613 -0.0193,0.0612 -0.02,0.061 -0.0207,0.061 -0.0213,0.0608 -0.0221,0.0606 -0.0227,0.0606 -0.0233,0.0603 -0.024,0.0603 -0.0247,0.06 -0.0253,0.0599 -0.026,0.0597 -0.0267,0.0596 -0.0273,0.0593 -0.028,0.0591 -0.0287,0.059 -0.0292,0.0587 -0.03,0.0585 -0.0306,0.0583 -0.0313,0.058 -0.0319,0.0578 -0.0325,0.0576 -0.0332,0.0573 -0.0339,0.0571 -0.0344,0.0567 -0.0352,0.0566 -0.0357,0.0562 -0.0364,0.0559 -0.0371,0.0557 -0.0376,0.0553 -0.0383,0.0551 -0.0389,0.0547 -0.0396,0.0544 -0.0401,0.0541 -0.0408,0.0537 -0.0414,0.0534 -0.042,0.0531 -0.0426,0.0527 -0.0432,0.0523 -0.0438,0.052 -0.0444,0.0516 -0.0451,0.0512 -0.0456,0.0508 -0.0462,0.0505 -0.0468,0.05 -0.0473,0.0496 -0.048,0.0493 -0.0485,0.0488 -0.0491,0.0483 -0.0496,0.048 -0.0503,0.0475 -0.0508,0.047 -0.0513,0.0466 -0.0519,0.0462 -0.0524,0.0457 -0.053,0.0452 -0.0535,0.0447 -0.0541,0.0443 -0.0546,0.0438 -0.0551,0.0432 -0.0556,0.0428 -0.0561,0.0423 -0.0567,0.0418 -0.0571,0.0412 -0.0577,0.0407 -0.0581,0.0403 -0.0587,0.0396 -0.0591,0.0392 -0.0596,0.0385 -0.0601,0.0381 -0.0606,0.0375 -0.061,0.0369 -0.0615,0.0363 -0.0619,0.0358 -0.0624,0.0352 -0.0629,0.0346 -0.0632,0.0341 -0.0637,0.0334 -0.0641,0.0329 -0.0646,0.0322 -0.0649,0.0317 -0.0654,0.031 -0.0658,0.0304 -0.0661,0.0298 -0.0666,0.0291 -0.0669,0.0286 -0.0673,0.0279 -0.0677,0.0272 -0.0681,0.0266 -0.0684,0.026 -0.0688,0.0253 -0.0691,0.0247 -0.0694,0.024 -0.0698,0.0233 -0.0701,0.0227 -0.0704,0.0219 -0.0707,0.0213 -0.0711,0.0207 -0.0713,0.0199 -0.0716,0.0193 -0.0719,0.0185 -0.0722,0.0179 -0.0725,0.0171 -0.0727,0.0165 -0.073,0.0157 -0.0732,0.0151 -0.0735,0.0143 -0.0737,0.0136 -0.0739,0.0129 -0.0742,0.0122 -0.0743,0.0114 -0.0746,0.0107 -0.0747,0.01 -0.075,0.0093 -0.0751,0.0085 -0.0753,0.0077 -0.0755,0.0071 -0.0756,0.0062 -0.0758,0.0056 -0.076,0.0047 -0.076,0.0041 -0.0762,0.0033 -0.0763,0.0025 -0.0765,0.0017 -0.0765,10e-4 -0.0766,3e-4 -0.0767,-5e-4 L 22.3619,30.7749 22.285,30.7728 22.2081,30.77 22.1311,30.7664 22.054,30.762 21.9769,30.7569 21.8998,30.751 l -0.0771,-0.0067 -0.0772,-0.0075 -0.0771,-0.0082 -0.0772,-0.0091 -0.0771,-0.0098 -0.0772,-0.0106 -0.0771,-0.0113 -0.0771,-0.0122 -0.077,-0.0129 -0.077,-0.0137 -0.0769,-0.0145 -0.0769,-0.0152 -0.0768,-0.0161 -0.0767,-0.0168 -0.0766,-0.0177 -0.0765,-0.0184 -0.0765,-0.0191 -0.0763,-0.02 -0.0761,-0.0208 -0.0761,-0.0215 -0.0758,-0.0223 -0.0758,-0.0231 -0.0756,-0.0239 -0.0754,-0.0246 -0.0753,-0.0254 -0.075,-0.0262 -0.0749,-0.027 -0.0747,-0.0278 -0.0744,-0.0285 -0.0743,-0.0293 -0.074,-0.0301 L 19.4643,30.1499 19.3908,30.1183 19.3175,30.0859 19.2444,30.0528 19.1717,30.0189 19.0991,29.9842 19.0269,29.9488 18.955,29.9126 18.8834,29.8757 18.8121,29.838 18.7411,29.7996 18.6704,29.7604 18.6001,29.7205 18.53,29.6798 18.4604,29.6384 18.3911,29.5963 18.3222,29.5534 18.2536,29.5098 18.1854,29.4655 18.1176,29.4204 18.0502,29.3746 17.9833,29.3281 17.9167,29.2809 17.8505,29.233 17.7848,29.1843 17.7195,29.135 l -0.0648,-0.05 -0.0644,-0.0508 -0.0639,-0.0514 -0.0635,-0.0521 -0.063,-0.0528 -0.0625,-0.0535 -0.062,-0.0542 -0.0615,-0.0548 -0.061,-0.0555 -0.0605,-0.0562 -0.06,-0.0568 L 16.973,28.4894 16.914,28.4313 16.8557,28.3725 16.7979,28.3131 16.7406,28.253 16.6839,28.1924 16.6278,28.131 16.5723,28.0691 16.5173,28.0066 16.463,27.9434 16.4092,27.8797 16.356,27.8153 16.3035,27.7503 16.2516,27.6848 16.2003,27.6187 16.1496,27.552 16.0996,27.4847 16.0503,27.4169 16.0016,27.3485 15.9535,27.2795 15.9061,27.21 15.8594,27.14 15.8134,27.0694 15.7681,26.9983 15.7234,26.9267 15.6795,26.8546 15.6362,26.7819 15.5937,26.7088 15.5519,26.6351 15.5108,26.561 15.4704,26.4864 15.4308,26.4113 15.3919,26.3357 15.3537,26.2597 15.3163,26.1833 15.2797,26.1063 15.2438,26.029 15.2087,25.9512 15.1744,25.873 15.1408,25.7943 15.108,25.7153 15.076,25.6358 15.0448,25.556 15.0144,25.4757 14.9849,25.3951 14.9561,25.3141 14.9281,25.2328 14.9009,25.1511 14.8746,25.069 14.8491,24.9866 14.8244,24.9039 14.8005,24.8208 14.7775,24.7374 14.7554,24.6537 14.734,24.5697 14.7136,24.4854 14.694,24.4009 14.6752,24.316 14.6573,24.2309 14.6403,24.1455 14.6241,24.0599 14.6088,23.974 14.5944,23.8879 14.5809,23.8016 14.5682,23.715 l -0.0118,-0.0867 -0.0108,-0.087 -0.01,-0.0871 -0.0091,-0.0874 -0.0082,-0.0875 -0.0073,-0.0877 -0.0064,-0.0878 -0.0055,-0.088 -0.0046,-0.0881 -0.0037,-0.0882 -0.0028,-0.0884 -0.0018,-0.0885 -9e-4,-0.0885 -10e-5,-0.0887 9e-4,-0.0888 0.0019,-0.0888 0.0027,-0.0889 0.0037,-0.089 0.0046,-0.089 0.0055,-0.089 0.0064,-0.0891 0.0074,-0.0891 0.0083,-0.0891 0.0092,-0.0891 0.0102,-0.0891 0.0111,-0.0891 0.012,-0.089 0.013,-0.089 0.0139,-0.089 0.0149,-0.0889 0.0157,-0.0889 0.0167,-0.0888 0.0177,-0.0887 0.0186,-0.0886 0.0195,-0.0885 0.0204,-0.0884 0.0214,-0.0882 0.0223,-0.0882 0.0233,-0.088 0.0242,-0.0878 0.0251,-0.0877 0.026,-0.0876 0.027,-0.0873 0.0279,-0.0872 0.0288,-0.087 0.0298,-0.0867 0.0307,-0.0866 0.0316,-0.0863 0.0325,-0.0861 0.0335,-0.0858 0.0344,-0.0856 0.0353,-0.0854 0.0362,-0.085 0.0371,-0.0848 0.0381,-0.0845 0.0389,-0.0842 0.0399,-0.0839 0.0407,-0.0835 0.0417,-0.0833 0.0425,-0.0829 0.0435,-0.0825 0.0443,-0.0822 0.0453,-0.0818 0.0461,-0.0815 0.047,-0.0811 0.0479,-0.0806 0.0488,-0.0803 0.0496,-0.0799 0.0506,-0.0794 0.0514,-0.0791 0.0522,-0.0786 0.0531,-0.0781 0.054,-0.0777 0.0548,-0.0772 0.0557,-0.0767 0.0565,-0.0763 0.0573,-0.0758 0.0582,-0.0752 0.059,-0.0748 0.0599,-0.0742 0.0607,-0.0738 0.0614,-0.0731 0.0623,-0.0727 0.0631,-0.0721 0.0639,-0.0715 0.0647,-0.071 0.0655,-0.0703 0.0663,-0.0698 0.0671,-0.0692 0.0678,-0.0686 0.0686,-0.068 0.0694,-0.0674 0.0701,-0.0667 0.0709,-0.0661 0.0716,-0.0655 0.0723,-0.0648 0.0731,-0.0642 0.0739,-0.0634 0.0745,-0.0629 0.0753,-0.0621 0.0759,-0.0614 0.0767,-0.0608 0.0773,-0.06 0.0781,-0.0593 0.0787,-0.0586 0.0794,-0.0579 0.0801,-0.0571 0.0807,-0.0564 0.0814,-0.0557 0.0821,-0.0549 0.0826,-0.0541 0.0833,-0.0533 0.084,-0.0526 0.0845,-0.0518 0.0852,-0.051 0.0857,-0.0502 0.0864,-0.0494 0.0869,-0.0486 0.0875,-0.0478 0.0881,-0.0469 0.0886,-0.0461 0.0892,-0.0453 0.0897,-0.0444 0.0903,-0.0436 0.0908,-0.0427 0.0913,-0.0419 0.0918,-0.041 0.0923,-0.0401 0.0929,-0.0393 0.0933,-0.0384 0.0937,-0.0374 0.0943,-0.0366 0.0947,-0.0357 0.0951,-0.0348 0.0956,-0.0338 0.0961,-0.033 0.0964,-0.032 0.0969,-0.0311 0.0972,-0.0302 0.0977,-0.0292 0.098,-0.0283 0.0984,-0.0273 0.0988,-0.0264 0.0991,-0.0255 0.0995,-0.0245 0.0998,-0.0235 0.1002,-0.0225 0.1004,-0.0216 0.1008,-0.0206 0.101,-0.0196 z m 1.2419,7.2603 -1.1526,0.2754 -0.0677,-5.7095 -0.0543,0.0122 -0.0818,0.0193 -0.0817,0.0201 -0.0811,0.0208 -0.081,0.0216 -0.0805,0.0224 -0.0805,0.0233 -0.0797,0.0238 -0.0799,0.0248 -0.0789,0.0253 -0.0791,0.0263 -0.0786,0.027 -0.0782,0.0277 -0.0779,0.0284 -0.0772,0.0291 -0.0771,0.03 -0.0767,0.0306 -0.0762,0.0313 -0.0761,0.0322 -0.0751,0.0326 -0.0751,0.0336 -0.0744,0.0341 -0.0743,0.035 -0.0736,0.0355 -0.0734,0.0363 -0.0726,0.0369 -0.0723,0.0376 -0.0718,0.0383 -0.0713,0.0389 -0.0709,0.0396 -0.0704,0.0403 -0.0696,0.0408 -0.0697,0.0417 -0.0688,0.0421 -0.0682,0.0428 -0.0678,0.0434 -0.0674,0.0441 -0.0667,0.0447 -0.0662,0.0453 -0.0657,0.0458 -0.065,0.0464 -0.0647,0.0471 -0.064,0.0477 -0.0634,0.0482 -0.0629,0.0488 -0.0622,0.0492 -0.0616,0.0499 -0.0612,0.0505 -0.0606,0.0511 -0.0598,0.0514 -0.0593,0.0521 -0.0587,0.0525 -0.0581,0.0531 -0.0575,0.0537 -0.0568,0.0541 -0.0562,0.0545 -0.0557,0.0552 -0.0549,0.0555 -0.0543,0.0561 -0.0536,0.0564 -0.0532,0.0572 -0.0523,0.0573 -0.0517,0.0579 -0.0511,0.0584 -0.0503,0.0586 -0.0498,0.0593 -0.0489,0.0594 -0.0485,0.0602 -0.0476,0.0603 -0.0471,0.0609 -0.0463,0.0613 -0.0456,0.0615 -0.045,0.0619 -0.0442,0.0623 -0.0436,0.0628 -0.0429,0.063 -0.0421,0.0635 -0.0414,0.0636 -0.0407,0.064 -0.0401,0.0645 -0.0392,0.0646 -0.0387,0.0652 -0.0378,0.0651 -0.0372,0.0657 -0.0365,0.0659 -0.0356,0.0661 -0.035,0.0664 -0.0342,0.0667 -0.0336,0.0671 -0.0327,0.067 -0.0321,0.0676 -0.0313,0.0676 -0.0305,0.0679 -0.0299,0.0681 -0.0291,0.0684 -0.0283,0.0684 -0.0276,0.0688 -0.0268,0.0689 -0.0262,0.0691 -0.0253,0.0691 -0.0246,0.0695 -0.0239,0.0696 -0.0231,0.0697 -0.0224,0.0698 -0.0216,0.0701 -0.0209,0.0701 -0.02,0.0701 -0.0194,0.0704 -0.0187,0.0705 -0.0178,0.0705 -0.0171,0.0706 -0.0164,0.0707 -0.0156,0.0708 -0.0148,0.0709 -0.0141,0.0708 -0.0134,0.0709 -0.0126,0.0711 -0.0118,0.0709 -0.0111,0.071 -0.0104,0.0712 -0.0096,0.0709 -0.0088,0.0712 -0.0081,0.0709 -0.0074,0.0711 -0.0066,0.0712 -0.0059,0.0709 -0.0051,0.071 -0.0044,0.071 -0.0037,0.0708 -0.0029,0.0708 -0.0022,0.0707 -0.0014,0.0708 -8e-4,0.0706 10e-5,0.0705 7e-4,0.0704 0.0015,0.0704 0.0022,0.0702 0.0029,0.0701 0.0036,0.07 0.0044,0.0698 0.0051,0.0697 0.0058,0.0696 0.0065,0.0694 0.0072,0.0694 0.0079,0.0689 0.0086,0.0691 0.0093,0.0686 0.0101,0.0687 0.0107,0.0683 0.0114,0.0682 0.0121,0.0681 0.0128,0.0677 0.0135,0.0676 0.0141,0.0672 0.0149,0.0672 0.0155,0.0668 0.0162,0.0667 0.0168,0.0662 0.0176,0.0663 0.0181,0.0657 0.0188,0.0657 0.0195,0.0652 0.0201,0.0651 0.0208,0.0647 0.0214,0.0643 0.0221,0.0643 0.0227,0.0638 0.0233,0.0634 0.0239,0.0633 0.0246,0.0629 0.0252,0.0625 0.0258,0.0622 0.0263,0.0618 0.0271,0.0616 0.0276,0.0612 0.0282,0.0608 0.0288,0.0604 0.0293,0.06 0.0301,0.0599 0.0304,0.0592 0.0311,0.0589 0.0317,0.0586 0.0323,0.0581 0.0328,0.0578 0.0333,0.0574 0.0339,0.0568 0.0345,0.0566 0.0349,0.0561 0.0355,0.0556 0.0361,0.0553 0.0365,0.0548 0.0371,0.0545 0.0375,0.0537 0.0381,0.0536 0.0386,0.053 0.039,0.0525 0.0397,0.0522 0.04,0.0516 0.0405,0.0511 0.041,0.0507 0.0415,0.0503 0.0418,0.0496 0.0425,0.0493 0.0428,0.0488 0.0432,0.0482 0.0439,0.0478 0.044,0.0471 0.0446,0.0469 0.045,0.0462 0.0453,0.0457 0.0459,0.0452 0.0462,0.0447 0.0466,0.0442 0.047,0.0436 0.0474,0.0431 0.0478,0.0426 0.0481,0.042 0.0485,0.0415 0.0488,0.041 0.0492,0.0404 0.0496,0.0399 0.05,0.0393 0.0501,0.0387 0.0506,0.0382 0.0509,0.0377 0.0512,0.0371 0.0515,0.0365 0.0518,0.036 0.0521,0.0354 0.0524,0.0348 0.0526,0.0342 0.0529,0.0337 0.0534,0.0332 0.0534,0.0324 0.0537,0.032 0.0541,0.0314 0.0541,0.0307 0.0544,0.0302 0.0549,0.0297 0.0549,0.029 0.0551,0.0284 0.0553,0.0278 0.0557,0.0273 0.0556,0.0266 0.0561,0.0261 0.0561,0.0255 0.0562,0.0248 0.0566,0.0243 0.0567,0.0237 0.0567,0.0231 0.057,0.0225 0.0571,0.0218 0.0574,0.0213 0.0572,0.0207 0.0577,0.0201 0.0575,0.0194 0.0577,0.0189 0.0579,0.0183 0.058,0.0177 0.058,0.017 0.0581,0.0165 0.0583,0.0158 0.0583,0.0153 0.0583,0.0146 0.0584,0.0141 0.0584,0.0134 0.0585,0.0128 0.0586,0.0123 0.0586,0.0116 0.0586,0.0111 0.0586,0.0104 0.0587,0.0099 0.0587,0.0092 0.0587,0.0087 0.0585,0.008 0.0587,0.0074 0.0586,0.0069 0.0587,0.0063 0.0586,0.0056 0.0586,0.0051 0.0585,0.0045 0.0584,0.0039 0.0585,0.0033 0.0583,0.0027 0.0582,0.0022 0.0584,0.0015 0.058,10e-4 0.058,4e-4 0.058,-2e-4 0.0578,-7e-4 0.0579,-0.0014 0.0577,-0.0019 0.0574,-0.0024 0.0574,-0.0031 0.0575,-0.0036 0.057,-0.0042 0.0571,-0.0047 0.0568,-0.0053 0.0568,-0.0058 0.0566,-0.0065 0.0563,-0.0069 0.0564,-0.0075 0.056,-0.0081 0.0558,-0.0086 0.0559,-0.0091 0.0555,-0.0097 0.0553,-0.0102 0.0552,-0.0108 0.055,-0.0113 0.0546,-0.0118 0.0544,-0.0123 0.0544,-0.0129 0.0541,-0.0134 0.0538,-0.0138 0.0536,-0.0144 0.0533,-0.0149 0.0533,-0.0155 0.0528,-0.0159 0.0524,-0.0164 0.0526,-0.017 0.052,-0.0174 0.0518,-0.0178 0.0515,-0.0184 0.0512,-0.0189 0.0511,-0.0194 0.0507,-0.0198 0.0503,-0.0203 0.0501,-0.0207 0.0498,-0.0213 0.0496,-0.0217 0.049,-0.0221 0.049,-0.0226 0.0485,-0.023 0.0481,-0.0235 0.048,-0.0239 0.0474,-0.0243 0.0473,-0.0248 0.0469,-0.0253 0.0465,-0.0256 0.0461,-0.026 0.0459,-0.0265 0.0455,-0.0269 0.045,-0.0273 0.0447,-0.0277 0.0444,-0.0281 0.044,-0.0284 0.0437,-0.0289 0.0432,-0.0292 0.0429,-0.0297 0.0425,-0.03 0.042,-0.0303 0.0417,-0.0308 0.0413,-0.0311 0.0409,-0.0315 0.0405,-0.0318 0.0402,-0.0322 0.0396,-0.0324 0.0393,-0.0328 0.0388,-0.0332 0.0384,-0.0335 0.0381,-0.0338 0.0376,-0.0342 0.0372,-0.0344 0.0366,-0.0347 0.0364,-0.0351 0.0359,-0.0354 0.0355,-0.0356 0.035,-0.0359 0.0345,-0.0363 0.0341,-0.0364 0.0338,-0.0369 0.0331,-0.0369 0.0329,-0.0374 0.0323,-0.0376 0.0318,-0.0377 0.0316,-0.0382 0.0308,-0.0382 0.0306,-0.0386 0.0301,-0.0387 0.0295,-0.039 0.0292,-0.0393 0.0286,-0.0393 0.0282,-0.0398 0.0278,-0.0399 0.0272,-0.0399 0.0268,-0.0404 0.0264,-0.0404 0.0257,-0.0406 0.0254,-0.0408 0.0249,-0.041 0.0244,-0.0412 0.024,-0.0413 0.0234,-0.0415 0.023,-0.0416 0.0225,-0.0419 0.022,-0.0418 0.0215,-0.0421 0.0211,-0.0422 0.0206,-0.0423 0.0201,-0.0426 0.0196,-0.0425 0.0191,-0.0427 0.0186,-0.0427 0.0182,-0.043 0.0176,-0.0429 0.0173,-0.0433 0.0166,-0.0429 0.0163,-0.0436 0.0156,-0.0429 0.0153,-0.0436 0.0148,-0.0436 0.0142,-0.0434 0.0138,-0.0436 0.0133,-0.0435 0.0129,-0.044 0.0122,-0.0434 0.012,-0.0441 0.0113,-0.0434 0.0109,-0.044 0.0104,-0.044 0.0099,-0.0437 0.0094,-0.0436 0.009,-0.0442 0.0085,-0.0437 0.008,-0.0441 0.0075,-0.0436 0.0071,-0.0438 0.0066,-0.0439 0.0061,-0.0439 0.0056,-0.0438 0.0052,-0.0436 0.0047,-0.0435 0.0042,-0.0439 0.0038,-0.0435 0.0033,-0.0436 0.0028,-0.0435 0.0024,-0.0434 0.0019,-0.0433 0.0014,-0.0431 0.001,-0.0434 6e-4,-0.0433 10e-5,-0.0429 -4e-4,-0.0429 -8e-4,-0.0428 -0.0013,-0.0427 -0.0017,-0.0429 -0.0022,-0.0421 -0.0026,-0.043 -0.003,-0.0419 -0.0035,-0.0421 -0.0039,-0.0424 -0.0044,-0.0419 -0.0047,-0.0415 -0.0053,-0.0421 -0.0056,-0.0412 -0.0061,-0.0415 -0.0064,-0.0409 -0.007,-0.0413 -0.0073,-0.041 -0.0077,-0.0406 -0.0081,-0.0405 -0.0086,-0.0406 -0.009,-0.0401 -0.0093,-0.0401 -0.0098,-0.0398 -0.0101,-0.0395 -0.0107,-0.0398 -0.0108,-0.039 -0.0114,-0.0394 -0.0117,-0.0387 -0.0121,-0.0387 -0.0125,-0.0384 -0.0129,-0.0383 -0.0133,-0.0382 -0.0135,-0.0376 -0.014,-0.0375 -0.0144,-0.0376 -0.0147,-0.037 -0.0151,-0.0372 -0.0153,-0.0363 -0.0159,-0.0367 -0.016,-0.0361 -0.0165,-0.0358 -0.0168,-0.0358 -0.0171,-0.0354 -0.0175,-0.0352 -0.0178,-0.035 -0.0181,-0.0346 -0.0185,-0.0344 -0.0187,-0.0341 -0.0191,-0.0339 -0.0195,-0.0336 -0.0196,-0.0333 -0.02,-0.033 -0.0204,-0.0329 -0.0206,-0.0323 -0.0209,-0.0322 -0.0212,-0.0319 -0.0215,-0.0317 -0.0217,-0.0312 -0.0221,-0.0311 -0.0223,-0.0307 -0.0226,-0.0304 -0.0229,-0.0301 -0.023,-0.0298 -0.0235,-0.0296 -0.0236,-0.0291 -0.0239,-0.0289 -0.0241,-0.0286 -0.0244,-0.0283 -0.0245,-0.0279 -0.0249,-0.0276 -0.0251,-0.0273 -0.0253,-0.0271 -0.0255,-0.0266 -0.0258,-0.0263 -0.026,-0.0261 -0.0261,-0.0256 -0.0264,-0.0253 -0.0265,-0.025 -0.027,-0.0248 -0.0268,-0.0243 -0.0272,-0.0241 -0.0273,-0.0236 -0.0276,-0.0234 -0.0277,-0.0229 -0.0279,-0.0227 -0.028,-0.0223 -0.0282,-0.022 -0.0284,-0.0217 -0.0285,-0.0212 -0.0287,-0.021 -0.0289,-0.0206 -0.0289,-0.0202 -0.0291,-0.02 L 26.0797,21.1636 26.0503,21.1444 26.0207,21.1255 25.9912,21.107 25.9613,21.0888 25.9315,21.071 25.9016,21.0536 25.8715,21.0365 25.8412,21.0197 25.811,21.0033 25.7807,20.9872 25.7502,20.9715 25.7198,20.9562 25.689,20.9411 25.6584,20.9265 25.6276,20.9123 25.5968,20.8983 25.5659,20.8847 25.5348,20.8714 25.504,20.8586 25.4728,20.8461 25.4416,20.8339 25.4105,20.8221 25.3793,20.8106 25.3481,20.7995 25.3168,20.7887 25.2855,20.7782 25.2543,20.7682 25.2229,20.7584 25.1915,20.749 25.1603,20.74 25.1287,20.7313 25.0975,20.723 25.0661,20.715 25.0347,20.7073 25.0033,20.7 24.972,20.693 l -0.0314,-0.0066 -0.0313,-0.0063 -0.0312,-0.006 -0.0312,-0.0056 -0.0314,-0.0053 -0.031,-0.0049 -0.0314,-0.0046 -0.0309,-0.0043 -0.0312,-0.004 -0.031,-0.0036 -0.0308,-0.0033 -0.031,-0.0029 -0.0308,-0.0027 -0.0308,-0.0023 -0.0307,-0.002 -0.0307,-0.0017 -0.0306,-0.0013 -0.0303,-10e-4 -0.0305,-8e-4 -0.0303,-4e-4 -0.0303,-10e-5 -0.0301,3e-4 -0.0301,5e-4 -0.0299,8e-4 -0.0299,0.0012 -0.0296,0.0014 -0.0298,0.0018 -0.0294,0.002 -0.0294,0.0023 -0.0293,0.0027 -0.0291,0.0029 -0.0292,0.0032 -0.0288,0.0035 -0.0288,0.0038 -0.0286,0.0041 -0.0286,0.0044 -0.0283,0.0046 -0.0283,0.0049 -0.0279,0.0052 -0.0281,0.0055 -0.0277,0.0057 -0.0277,0.006 z"
     class="ccustom"
     fill="#43505c"
     id="path14"
     style="fill:#fc5829;fill-opacity:1" />
</svg>
